HIERARCHY
ROOT Hips
{
	OFFSET 0.000000 0.000000 0.000000
	CHANNELS 6 Xposition Yposition Zposition Zrotation Yrotation Xrotation 
	JOINT LHipJoint
	{
		OFFSET 0.000000 0.000000 0.000000
		CHANNELS 3 Zrotation Yrotation Xrotation
		JOINT LeftUpLeg
		{
			OFFSET 1.363060 -1.794630 0.839290
			CHANNELS 3 Zrotation Yrotation Xrotation
			JOINT LeftLeg
			{
				OFFSET 2.448110 -6.726130 0.000000
				CHANNELS 3 Zrotation Yrotation Xrotation
				JOINT LeftFoot
				{
					OFFSET 2.562200 -7.039590 0.000000
					CHANNELS 3 Zrotation Yrotation Xrotation
					JOINT LeftToeBase
					{
						OFFSET 0.157640 -0.433110 2.322550
						CHANNELS 3 Zrotation Yrotation Xrotation
						End Site
						{
							OFFSET 0.000000 0.000000 0.000000
						}
					}
				}
			}
		}
	}
	JOINT RHipJoint
	{
		OFFSET 0.000000 0.000000 0.000000
		CHANNELS 3 Zrotation Yrotation Xrotation
		JOINT RightUpLeg
		{
			OFFSET -1.305520 -1.794630 0.839290
			CHANNELS 3 Zrotation Yrotation Xrotation
			JOINT RightLeg
			{
				OFFSET -2.542530 -6.985550 0.000000
				CHANNELS 3 Zrotation Yrotation Xrotation
				JOINT RightFoot
				{
					OFFSET -2.568260 -7.056230 0.000000
					CHANNELS 3 Zrotation Yrotation Xrotation
					JOINT RightToeBase
					{
						OFFSET -0.164730 -0.452590 2.363150
						CHANNELS 3 Zrotation Yrotation Xrotation
						End Site
						{
							OFFSET 0.000000 0.000000 0.000000
						}
					}
				}
			}
		}
	}
	JOINT LowerBack
	{
		OFFSET 0.000000 0.000000 0.000000
		CHANNELS 3 Zrotation Yrotation Xrotation
		JOINT Spine
		{
			OFFSET 0.028270 2.035590 -0.193380
			CHANNELS 3 Zrotation Yrotation Xrotation
			JOINT Spine1
			{
				OFFSET 0.056720 2.048850 -0.042750
				CHANNELS 3 Zrotation Yrotation Xrotation
				JOINT Neck
				{
					OFFSET 0.000000 0.000000 0.000000
					CHANNELS 3 Zrotation Yrotation Xrotation
					JOINT Neck1
					{
						OFFSET -0.054170 1.746240 0.172020
						CHANNELS 3 Zrotation Yrotation Xrotation
						JOINT Head
						{
							OFFSET 0.104070 1.761360 -0.123970
							CHANNELS 3 Zrotation Yrotation Xrotation
							End Site
							{
								OFFSET 0.000000 0.000000 0.000000
							}
						}
					}
				}
				JOINT LeftShoulder
				{
					OFFSET 0.000000 0.000000 0.000000
					CHANNELS 3 Zrotation Yrotation Xrotation
					JOINT LeftArm
					{
						OFFSET 3.362410 1.200890 -0.311210
						CHANNELS 3 Zrotation Yrotation Xrotation
						JOINT LeftForeArm
						{
							OFFSET 4.983000 -0.000000 -0.000000
							CHANNELS 3 Zrotation Yrotation Xrotation
							JOINT LeftHand
							{
								OFFSET 3.483560 -0.000000 -0.000000
								CHANNELS 3 Zrotation Yrotation Xrotation
								JOINT LeftFingerBase
								{
									OFFSET 0.000000 0.000000 0.000000
									CHANNELS 3 Zrotation Yrotation Xrotation
									JOINT LeftHandIndex1
									{
										OFFSET 0.715260 -0.000000 -0.000000
										CHANNELS 3 Zrotation Yrotation Xrotation
										End Site
										{
											OFFSET 0.000000 0.000000 0.000000
										}
									}
								}
								JOINT LThumb
								{
									OFFSET 0.000000 0.000000 0.000000
									CHANNELS 3 Zrotation Yrotation Xrotation
									End Site
									{
										OFFSET 0.000000 0.000000 0.000000
									}
								}
							}
						}
					}
				}
				JOINT RightShoulder
				{
					OFFSET 0.000000 0.000000 0.000000
					CHANNELS 3 Zrotation Yrotation Xrotation
					JOINT RightArm
					{
						OFFSET -3.136600 1.374050 -0.404650
						CHANNELS 3 Zrotation Yrotation Xrotation
						JOINT RightForeArm
						{
							OFFSET -5.241900 -0.000000 -0.000000
							CHANNELS 3 Zrotation Yrotation Xrotation
							JOINT RightHand
							{
								OFFSET -3.444170 -0.000000 -0.000000
								CHANNELS 3 Zrotation Yrotation Xrotation
								JOINT RightFingerBase
								{
									OFFSET 0.000000 0.000000 0.000000
									CHANNELS 3 Zrotation Yrotation Xrotation
									JOINT RightHandIndex1
									{
										OFFSET -0.622530 -0.000000 -0.000000
										CHANNELS 3 Zrotation Yrotation Xrotation
										End Site
										{
											OFFSET 0.000000 0.000000 0.000000
										}
									}
								}
								JOINT RThumb
								{
									OFFSET 0.000000 0.000000 0.000000
									CHANNELS 3 Zrotation Yrotation Xrotation
									End Site
									{
										OFFSET 0.000000 0.000000 0.000000
									}
								}
							}
						}
					}
				}
			}
		}
	}
}
MOTION
Frames: 10
Frame Time: 0.008333
3.069379 15.583236 1.509651 -178.461431 -73.772634 -164.633880 -14.157349 2.340060 -0.370056 3.099329 9.129386 -39.334827 6.814595 6.757322 111.260481 2.570586 13.656039 4.924786 2.444500 0.000001 -31.588300 8.672611 -1.889019 3.212573 15.901131 3.337161 -35.635468 2.375945 -2.932586 56.386860 -1.923837 4.382905 -37.301322 -0.111000 0.000000 -19.058701 6.317806 -1.962347 -4.735800 0.460230 -2.636431 -3.608993 -6.682790 -2.649216 0.821109 7.467808 -5.594241 -8.047094 -3.631169 -0.266792 -0.121413 0.000000 0.000000 0.000000 9.763772 9.457687 1.331376 -42.251895 0.129839 10.176435 -0.400079 -79.194526 -0.069542 15.581931 -1.785833 -0.290478 -0.313511 0.315176 -0.000000 0.000000 0.000000 0.000000 0.000000 0.000000 0.000000 13.330003 -1.553398 1.283523 63.791133 21.194227 -24.601617 0.835999 37.452421 -0.069552 -16.882336 0.398564 -0.096112 0.155964 -0.245899 -0.000000 0.000000 0.000000 0.000000 0.000000 0.000000 0.000000 
2.894022 15.659648 1.487134 179.993150 -73.524404 -163.182501 -14.041810 2.059586 -0.319545 2.449004 8.620309 -40.654281 6.683141 6.667179 110.754526 2.570536 13.657740 5.007480 2.461600 0.000000 -31.785400 8.740401 -1.917246 2.999659 15.109093 2.648580 -34.049468 2.477304 -2.775357 54.635790 -1.817056 4.736023 -36.798778 -0.280200 0.000000 -21.266400 5.561375 -1.770937 -4.575705 0.322269 -2.374577 -3.611450 -6.507664 -2.394785 0.690042 7.129513 -4.767437 -7.801023 -3.440611 -0.254449 -0.056866 0.000000 0.000000 0.000000 9.260601 9.328722 1.721524 -43.567843 0.948635 12.798756 -0.650434 -73.755836 -0.054524 14.307013 -0.502485 -0.093943 -0.297149 0.250615 0.000000 0.000000 0.000000 0.000000 0.000000 0.000000 0.000000 12.147483 -0.560928 1.115335 62.630355 22.717040 -23.828039 0.559538 39.857348 -0.076554 -16.946306 0.504334 -0.116003 0.156064 -0.270084 0.000000 0.000000 0.000000 0.000000 0.000000 0.000000 0.000000 
2.712528 15.750400 1.465281 178.488635 -73.281948 -161.755397 -13.902864 1.785574 -0.262824 1.753624 8.102829 -41.901018 6.498768 6.553950 109.986786 2.582413 13.740694 5.197788 2.516900 0.000000 -32.058300 8.810034 -1.941228 2.814082 14.235155 2.049706 -32.328815 2.575008 -2.595378 52.582977 -1.697371 5.034698 -36.077171 -0.420100 0.000000 -23.557500 4.826890 -1.576336 -4.439531 0.192608 -2.111653 -3.615593 -6.317258 -2.138154 0.573979 6.750994 -4.091954 -7.624449 -3.240059 -0.241084 -0.010082 0.000000 0.000000 0.000000 8.710859 9.264313 2.085640 -44.766957 1.827082 15.243308 -0.958036 -68.494136 -0.041552 12.678106 0.849354 0.076986 -0.279642 0.189990 0.000000 0.000000 0.000000 0.000000 0.000000 0.000000 0.000000 10.870579 0.271844 0.931636 61.273161 24.132906 -23.350611 0.275700 42.368383 -0.084408 -17.067990 0.631916 -0.140101 0.155209 -0.296166 0.000000 0.000000 0.000000 0.000000 0.000000 0.000000 0.000000 
2.524078 15.855656 1.443701 177.013440 -73.052162 -160.347042 -13.740155 1.523382 -0.199293 1.018247 7.566221 -43.048957 6.263123 6.416933 108.940225 2.605387 13.904485 5.474680 2.607900 0.000001 -32.343800 8.885521 -1.962212 2.654995 13.283480 1.540008 -30.454336 2.661244 -2.391872 50.208400 -1.556647 5.273041 -35.051452 -0.527400 -0.000000 -26.316700 4.104943 -1.382536 -4.326722 0.069381 -1.850820 -3.622046 -6.115264 -1.883013 0.470014 6.347418 -3.570123 -7.506160 -3.034304 -0.227085 0.022190 0.000000 0.000000 0.000000 8.110373 9.278079 2.410449 -45.873389 2.785148 17.441223 -1.307142 -63.483272 -0.031171 10.746715 2.146196 0.195619 -0.261425 0.135014 0.000000 0.000000 0.000000 0.000000 0.000000 0.000000 0.000000 9.534517 0.933852 0.732329 59.745227 25.431416 -23.195328 -0.002229 44.928378 -0.092996 -17.228098 0.774842 -0.167505 0.153387 -0.323709 0.000000 0.000000 0.000000 0.000000 0.000000 0.000000 0.000000 
2.328198 15.975301 1.421977 175.567363 -72.844397 -158.965495 -13.554439 1.277400 -0.126761 0.257484 7.000271 -44.074905 5.979614 6.255653 107.598073 2.637430 14.139139 5.817779 2.730800 0.000000 -32.636900 8.968514 -1.981308 2.523264 12.270641 1.130176 -28.412348 2.731051 -2.165541 47.511982 -1.396158 5.449711 -33.713398 -0.599801 0.000000 -28.966800 3.392938 -1.192575 -4.240174 -0.047753 -1.595067 -3.633122 -5.904732 -1.632983 0.371448 5.929831 -3.189487 -7.428513 -2.826705 -0.212832 0.045050 0.000000 0.000000 0.000000 7.458808 9.366279 2.685007 -46.898145 3.864095 19.311809 -1.678735 -58.784577 -0.023680 8.653779 3.270527 0.249362 -0.243656 0.086976 0.000000 0.000000 0.000000 0.000000 0.000000 0.000000 0.000000 8.161903 1.432245 0.517833 58.088280 26.586141 -23.373422 -0.261286 47.494760 -0.102111 -17.404398 0.928324 -0.197315 0.150629 -0.352198 0.000000 0.000000 0.000000 0.000000 0.000000 0.000000 0.000000 
2.124201 16.108828 1.399629 174.137790 -72.667021 -157.600252 -13.347281 1.051881 -0.041990 -0.519434 6.394783 -44.958924 5.653445 6.069429 105.947756 2.675976 14.431885 6.199760 2.879900 0.000000 -32.894300 9.062232 -2.002754 2.420669 11.210933 0.823414 -26.203361 2.774873 -1.919268 44.492563 -1.212088 5.557023 -31.987345 -0.633900 -0.000001 -31.667300 2.683797 -1.008409 -4.186306 -0.160314 -1.346197 -3.650342 -5.689094 -1.390404 0.277245 5.512347 -2.935965 -7.376980 -2.619898 -0.198620 0.062624 0.000000 0.000000 0.000000 6.770698 9.538237 2.901701 -47.851417 5.067486 20.786820 -2.054065 -54.412551 -0.018961 6.590939 4.142746 0.245525 -0.227808 0.046577 0.000000 0.000000 0.000000 0.000000 0.000000 0.000000 0.000000 6.778340 1.777792 0.288051 56.340310 27.572382 -23.867332 -0.489793 50.036180 -0.111510 -17.581538 1.092653 -0.229428 0.147090 -0.381040 0.000000 0.000000 0.000000 0.000000 0.000000 0.000000 0.000000 
1.911629 16.255461 1.376328 172.720114 -72.525458 -156.245669 -13.121192 0.850133 0.058903 -1.300634 5.743400 -45.687860 5.292030 5.858409 103.982627 2.718000 14.765369 6.595011 3.048200 -0.000000 -33.104600 9.169229 -2.032750 2.350298 10.124465 0.624936 -23.842611 2.782423 -1.658838 41.161405 -1.003934 5.583228 -29.797234 -0.625901 0.000000 -34.584400 1.974296 -0.829998 -4.174439 -0.269307 -1.104428 -3.675287 -5.471756 -1.155955 0.188231 5.106684 -2.789737 -7.337953 -2.415494 -0.184673 0.078716 0.000000 0.000000 0.000000 6.063265 9.801170 3.057648 -48.735875 6.380850 21.813090 -2.416677 -50.351602 -0.016485 4.752015 4.734394 0.206014 -0.215128 0.013827 0.000000 0.000000 0.000000 0.000000 0.000000 0.000000 0.000000 5.402999 1.990203 0.043718 54.538873 28.363246 -24.646072 -0.679081 52.533657 -0.120964 -17.750875 1.270777 -0.264143 0.143001 -0.409688 0.000000 0.000000 0.000000 0.000000 0.000000 0.000000 0.000000 
1.690295 16.413943 1.351960 171.321027 -72.421297 -154.904829 -12.879517 0.674194 0.180227 -2.070677 5.044418 -46.256819 4.904227 5.623730 101.700401 2.760496 15.120366 6.983142 3.228600 -0.000000 -33.285399 9.290641 -2.079047 2.315784 9.037106 0.541838 -21.361013 2.744834 -1.393300 37.547376 -0.776471 5.515775 -27.084442 -0.573600 0.000000 -37.729200 1.265951 -0.654780 -4.215763 -0.375091 -0.867812 -3.709029 -5.255889 -0.928003 0.108518 4.722304 -2.730095 -7.301762 -2.214311 -0.171126 0.095933 0.000000 0.000000 0.000000 5.354296 10.167336 3.154301 -49.549300 7.761623 22.361057 -2.754646 -46.560394 -0.015448 3.293330 5.055465 0.155934 -0.206317 -0.011791 0.000000 0.000000 0.000000 0.000000 0.000000 0.000000 0.000000 4.050182 2.092506 -0.213873 52.715887 28.936668 -25.668761 -0.824122 54.977300 -0.130300 -17.911905 1.466157 -0.301957 0.138668 -0.437681 0.000000 0.000000 0.000000 0.000000 0.000000 0.000000 0.000000 
1.460064 16.582843 1.326284 169.933709 -72.354565 -153.564579 -12.625280 0.525713 0.326249 -2.822797 4.297674 -46.666423 4.499843 5.366763 99.106516 2.800515 15.479302 7.333680 3.411501 -0.000000 -33.274800 9.428981 -2.151176 2.318151 7.967535 0.562164 -18.804483 2.656378 -1.135250 33.694930 -0.536989 5.351401 -23.796041 -0.481300 0.000000 -41.152000 0.552201 -0.480614 -4.321388 -0.480858 -0.634222 -3.752897 -5.048098 -0.704798 0.041512 4.377735 -2.744036 -7.260036 -2.020508 -0.158370 0.116416 0.000000 0.000000 0.000000 4.664507 10.621674 3.195382 -50.285669 9.190824 22.396330 -3.059755 -43.006188 -0.015006 2.308748 5.137426 0.114188 -0.201294 -0.031171 0.000000 0.000000 0.000000 0.000000 0.000000 0.000000 0.000000 2.761966 2.101378 -0.478022 50.870818 29.282401 -26.876926 -0.922043 57.363105 -0.139446 -18.082857 1.666377 -0.341268 0.134673 -0.464334 0.000000 0.000000 0.000000 0.000000 0.000000 0.000000 0.000000 
1.220941 16.760111 1.300304 168.649939 -72.308448 -152.299487 -12.366384 0.404879 0.499830 -3.521312 3.522690 -46.932150 4.089505 5.093445 96.210789 2.836034 15.820895 7.658355 3.594300 -0.000001 -33.450400 9.576430 -2.260182 2.364108 6.960822 0.713927 -16.229946 2.512052 -0.898112 29.647806 -0.300390 5.051041 -19.845653 -0.347100 0.000000 -45.461900 -0.133410 -0.295489 -4.503215 -0.579418 -0.394261 -3.807046 -4.843318 -0.476779 -0.004535 4.051233 -2.800916 -7.213105 -1.827535 -0.145861 0.139864 0.000000 0.000000 0.000000 3.986741 11.211100 3.188872 -50.935758 10.561274 21.962851 -3.331496 -39.610231 -0.014396 1.837284 4.990591 0.090375 -0.199817 -0.045121 0.000000 0.000000 0.000000 0.000000 0.000000 0.000000 0.000000 1.481863 2.053580 -0.751851 49.072106 29.380030 -28.250316 -0.976143 59.688834 -0.148338 -18.250829 1.903267 -0.386876 0.130981 -0.490029 0.000000 0.000000 0.000000 0.000000 0.000000 0.000000 0.000000 
